<svg xmlns="http://www.w3.org/2000/svg" width="400" height="300" viewBox="0 0 400 300">
  <style>
    .st0{fill:#f0f4f8}.st1{fill:#dde3e9}.st2{fill:#0d6efd}.st3{fill:#084298}.st4{fill:#ffffff}
  </style>
  <rect class="st0" width="400" height="300"/>
  <path class="st1" d="M310 50H90c-5.5 0-10 4.5-10 10v180c0 5.5 4.5 10 10 10h220c5.5 0 10-4.5 10-10V60c0-5.5-4.5-10-10-10z"/>
  <path class="st2" d="M280 80H120c-5.5 0-10 4.5-10 10v120c0 5.5 4.5 10 10 10h160c5.5 0 10-4.5 10-10V90c0-5.5-4.5-10-10-10z"/>
  <circle class="st3" cx="200" cy="140" r="40"/>
  <path class="st4" d="M215 140c0-8.3-6.7-15-15-15s-15 6.7-15 15c0 6.7 4.4 12.4 10.5 14.3v10.7c0 2.5 2 4.5 4.5 4.5s4.5-2 4.5-4.5v-10.7c6.1-1.9 10.5-7.6 10.5-14.3z"/>
  <path class="st4" d="M200 115c-13.8 0-25 11.2-25 25s11.2 25 25 25 25-11.2 25-25-11.2-25-25-25zm0 45c-11 0-20-9-20-20s9-20 20-20 20 9 20 20-9 20-20 20z"/>
</svg>

